<?xml version="1.0" encoding="UTF-8"?><svg id="Layer_1" xmlns="http://www.w3.org/2000/svg" viewBox="0 0 128 128"><defs><style>.cls-1{fill:#fff;}</style></defs><path class="cls-1" d="M92.23,92.23h-11.88v-18.6c0-4.44-.08-10.15-6.18-10.15s-7.14,4.83-7.14,9.83v18.92h-11.88V53.97h11.41v5.23h.16c1.59-3.01,5.47-6.18,11.25-6.18,12.04,0,14.27,7.92,14.27,18.22v20.98ZM41.75,48.74c-3.81,0-6.89-3.09-6.89-6.9s3.08-6.89,6.89-6.89,6.89,3.09,6.89,6.89-3.09,6.9-6.89,6.9m5.94,43.49h-11.89V53.97h11.89v38.26ZM98.15,23.92H29.83c-3.27,0-5.92,2.59-5.92,5.78V98.3c0,3.19,2.65,5.78,5.92,5.78H98.15c3.27,0,5.93-2.59,5.93-5.78V29.7c0-3.19-2.66-5.78-5.93-5.78"/></svg>