<svg width="256" height="128" viewBox="0 0 256 128" fill="none" xmlns="http://www.w3.org/2000/svg">
<g clip-path="url(#clip0_843_11005)">
<mask id="mask0_843_11005" style="mask-type:alpha" maskUnits="userSpaceOnUse" x="0" y="0" width="256" height="128">
<path d="M128 0C196.013 0 251.625 53.0268 255.754 119.999C256.026 124.408 252.418 128 248 128H8C3.58172 128 -0.0259631 124.408 0.245945 119.999C4.37532 53.0268 59.9873 0 128 0Z" fill="#E8F3FF"/>
<path d="M128 0C196.013 0 251.625 53.0268 255.754 119.999C256.026 124.408 252.418 128 248 128H8C3.58172 128 -0.0259631 124.408 0.245945 119.999C4.37532 53.0268 59.9873 0 128 0Z" fill="url(#paint0_linear_843_11005)"/>
</mask>
<g mask="url(#mask0_843_11005)">
<path d="M128 0C196.013 0 251.625 53.0268 255.754 119.999C256.026 124.408 252.418 128 248 128H8C3.58172 128 -0.0259631 124.408 0.245945 119.999C4.37532 53.0268 59.9873 0 128 0Z" fill="url(#paint1_linear_843_11005)"/>
<path d="M137.009 93.9998C136.709 86.1998 144.209 79.9998 151.809 81.8998C153.609 82.2998 155.509 81.6998 156.609 80.1998C159.809 76.0998 164.809 73.4998 170.409 73.4998C173.409 73.5998 176.909 74.6998 179.109 71.8998C182.709 67.5998 188.109 64.7998 194.209 64.7998C202.209 64.7998 209.109 69.5998 212.209 76.4998C213.309 79.0998 215.909 80.6998 218.709 80.6998C225.909 80.5998 231.609 86.9998 230.809 94.0998L137.009 93.9998Z" fill="white"/>
<path d="M122.341 60.5C122.541 54.9 117.141 50.5 111.741 51.8C110.441 52.1 109.141 51.6 108.241 50.6C105.941 47.7 102.341 45.8 98.3414 45.8C96.1414 45.9 93.6414 46.7 92.1414 44.6C89.5414 41.5 85.6414 39.5 81.3414 39.5C75.6414 39.5 70.6414 42.9 68.4414 47.9C67.6414 49.7 65.8414 50.9 63.7414 50.9C58.6414 50.8 54.5414 55.4 55.0414 60.5H122.341Z" fill="url(#paint2_linear_843_11005)"/>
<path d="M23.3 88.6001C24.6 88.3001 27.3 88.5001 30.3 88.5001C33.6 88.5001 39.6 88.8001 42.9 87.1001C44.6 86.2001 48.2 86.2001 50.7 86.7001C54.6 87.4001 57.8 90.1001 58.9 95.0001H16C16 95.0001 17.1 90.3001 23.3 88.6001V88.6001Z" fill="white"/>
<path d="M68.0625 75.5H152.938C156.272 75.5 159 78.2 159 81.5V128H62V81.5C62 78.2 64.7281 75.5 68.0625 75.5Z" fill="#56697A"/>
<path d="M110.5 44L89.2812 60.5V128H131.719V60.5L110.5 44Z" fill="#C0D1E2"/>
<path d="M112.016 107H117.017C118.381 107 119.594 108.05 119.594 109.4V128H112.016V107Z" fill="#9EB3C8"/>
<path d="M108.984 128H101.406V110C101.406 108.35 102.77 107 104.438 107H108.984V128Z" fill="#9EB3C8"/>
<path d="M110.609 81.5C116.469 81.5 121.219 76.799 121.219 71C121.219 65.201 116.469 60.5 110.609 60.5C104.75 60.5 100 65.201 100 71C100 76.799 104.75 81.5 110.609 81.5Z" fill="#F9FBFC"/>
<path d="M114.598 68.3622C113.022 69.7424 111.447 71.1227 109.871 72.503C109.146 73.1383 110.067 74.3286 110.798 73.6873C112.373 72.307 113.949 70.9267 115.524 69.5464C116.249 68.9111 115.329 67.7216 114.598 68.3622Z" fill="#56697A"/>
<path d="M109.593 62.9285C109.581 66.2834 109.57 69.6389 109.558 72.9938C109.556 73.4025 109.762 73.7787 110.207 73.8362C110.575 73.8833 111.048 73.5982 111.049 73.1872C111.061 69.8323 111.073 66.4768 111.084 63.1219C111.086 62.7133 110.881 62.337 110.435 62.2796C110.067 62.2324 109.594 62.5175 109.593 62.9285Z" fill="#56697A"/>
<path d="M145.359 120.5C149.545 120.5 152.938 115.127 152.938 108.5C152.938 101.873 149.545 96.5 145.359 96.5C141.174 96.5 137.781 101.873 137.781 108.5C137.781 115.127 141.174 120.5 145.359 120.5Z" fill="#9EB88F"/>
<path d="M146.875 113C146.875 112.1 146.269 111.5 145.359 111.5C144.45 111.5 143.844 112.1 143.844 113V128H146.875V113Z" fill="#D6EBCE"/>
<path d="M75.6406 120.5C79.8259 120.5 83.2188 115.127 83.2188 108.5C83.2188 101.873 79.8259 96.5 75.6406 96.5C71.4553 96.5 68.0625 101.873 68.0625 108.5C68.0625 115.127 71.4553 120.5 75.6406 120.5Z" fill="#9EB88F"/>
<path d="M77.1562 113C77.1562 112.1 76.55 111.5 75.6406 111.5C74.7312 111.5 74.125 112.1 74.125 113V128H77.1562V113Z" fill="#D6EBCE"/>
<circle cx="157" cy="35" r="15" fill="#FDE2BC"/>
</g>
</g>
<defs>
<linearGradient id="paint0_linear_843_11005" x1="128" y1="0" x2="128" y2="128" gradientUnits="userSpaceOnUse">
<stop stop-color="#A63980"/>
<stop offset="0.0965398" stop-color="#B0437C"/>
<stop offset="0.208342" stop-color="#BE4B7D"/>
<stop offset="0.354171" stop-color="#C9567D"/>
<stop offset="0.45139" stop-color="#D9637F"/>
<stop offset="0.553471" stop-color="#DF707F"/>
<stop offset="0.660412" stop-color="#EA8280"/>
<stop offset="0.762492" stop-color="#FB9A84"/>
<stop offset="0.830546" stop-color="#FFAA7E"/>
<stop offset="1" stop-color="#FFBD84"/>
</linearGradient>
<linearGradient id="paint1_linear_843_11005" x1="128" y1="0" x2="128" y2="128" gradientUnits="userSpaceOnUse">
<stop stop-color="#D2E9FF"/>
<stop offset="1" stop-color="#DDF7FB"/>
</linearGradient>
<linearGradient id="paint2_linear_843_11005" x1="88.6734" y1="39.5" x2="88.6734" y2="60.5" gradientUnits="userSpaceOnUse">
<stop offset="0.9999" stop-color="white"/>
<stop offset="1" stop-color="white" stop-opacity="0.1"/>
</linearGradient>
<clipPath id="clip0_843_11005">
<rect width="256" height="128" fill="white"/>
</clipPath>
</defs>
</svg>
